<svg xmlns="http://www.w3.org/2000/svg" width="1024" height="1024"><path fill="#f9f9f9" d="M44.292 130.84h948.881v753.754H44.292V130.84z"/><path fill="#d22215" d="M992.363 108.146H30.489c-13.724 0-24.863 11.139-24.863 24.874v756.823c0 13.735 11.139 24.863 24.863 24.863h961.863c13.735 0 24.863-11.139 24.863-24.863V133.02c.011-13.735-11.128-24.874-24.852-24.874zm-521.491 61.101c0-7.081 5.744-12.825 12.825-12.825h57.695c7.081 0 12.825 5.744 12.825 12.825v57.695c0 7.081-5.744 12.825-12.825 12.825h-57.695c-7.081 0-12.825-5.744-12.825-12.825v-57.695zm-137.397 0c0-7.081 5.744-12.825 12.825-12.825h57.695c7.081 0 12.825 5.744 12.825 12.825v57.695c0 7.081-5.744 12.825-12.825 12.825H346.3c-7.081 0-12.825-5.744-12.825-12.825v-57.695zM146.464 853.606c0 7.081-5.744 12.825-12.825 12.825H75.944c-7.081 0-12.825-5.744-12.825-12.825v-57.695c0-7.081 5.744-12.825 12.825-12.825h57.695c7.081 0 12.825 5.744 12.825 12.825v57.695zm0-626.664c0 7.081-5.744 12.825-12.825 12.825H75.944c-7.081 0-12.825-5.744-12.825-12.825v-57.695c0-7.081 5.744-12.825 12.825-12.825h57.695c7.081 0 12.825 5.744 12.825 12.825v57.695zm135.172 626.664c0 7.081-5.744 12.825-12.825 12.825h-57.695c-7.081 0-12.825-5.744-12.825-12.825v-57.695c0-7.081 5.744-12.825 12.825-12.825h57.695c7.081 0 12.825 5.744 12.825 12.825v57.695zm0-626.664c0 7.081-5.744 12.825-12.825 12.825h-57.695c-7.081 0-12.825-5.744-12.825-12.825v-57.695c0-7.081 5.744-12.825 12.825-12.825h57.695c7.081 0 12.825 5.744 12.825 12.825v57.695zm135.172 626.664c0 7.081-5.744 12.825-12.825 12.825h-57.695c-7.081 0-12.825-5.744-12.825-12.825v-57.695c0-7.081 5.744-12.825 12.825-12.825h57.695c7.081 0 12.825 5.744 12.825 12.825v57.695zm8.509-204.242c-11.004 6.351-24.773-1.585-24.773-14.297v-247.28c0-12.712 13.758-20.659 24.773-14.297l214.144 123.64c11.004 6.351 11.004 22.244 0 28.606L425.317 649.365zm128.889 204.242c0 7.081-5.744 12.825-12.825 12.825h-57.695c-7.081 0-12.825-5.744-12.825-12.825v-57.695c0-7.081 5.744-12.825 12.825-12.825h57.695c7.081 0 12.825 5.744 12.825 12.825v57.695zm135.172 0c0 7.081-5.744 12.825-12.825 12.825h-57.695c-7.081 0-12.825-5.744-12.825-12.825v-57.695c0-7.081 5.744-12.825 12.825-12.825h57.695c7.081 0 12.825 5.744 12.825 12.825v57.695zm0-626.664c0 7.081-5.744 12.825-12.825 12.825h-57.695c-7.081 0-12.825-5.744-12.825-12.825v-57.695c0-7.081 5.744-12.825 12.825-12.825h57.695c7.081 0 12.825 5.744 12.825 12.825v57.695zm135.184 626.664c0 7.081-5.744 12.825-12.825 12.825h-57.695c-7.081 0-12.825-5.744-12.825-12.825v-57.695c0-7.081 5.744-12.825 12.825-12.825h57.695c7.081 0 12.825 5.744 12.825 12.825v57.695zm0-626.664c0 7.081-5.744 12.825-12.825 12.825h-57.695c-7.081 0-12.825-5.744-12.825-12.825v-57.695c0-7.081 5.744-12.825 12.825-12.825h57.695c7.081 0 12.825 5.744 12.825 12.825v57.695zm135.172 626.664c0 7.081-5.744 12.825-12.825 12.825h-57.695c-7.081 0-12.825-5.744-12.825-12.825v-57.695c0-7.081 5.744-12.825 12.825-12.825h57.695c7.081 0 12.825 5.744 12.825 12.825v57.695zm0-626.664c0 7.081-5.744 12.825-12.825 12.825h-57.695c-7.081 0-12.825-5.744-12.825-12.825v-57.695c0-7.081 5.744-12.825 12.825-12.825h57.695c7.081 0 12.825 5.744 12.825 12.825v57.695z"/></svg>