<!-- Generated by IcoMoon.io -->
<svg version="1.1" xmlns="http://www.w3.org/2000/svg" width="1024" height="1024" viewBox="0 0 1024 1024">
<title></title>
<g id="icomoon-ignore">
</g>
<path fill="#f9f9f9" d="M44.292 130.84h948.881v753.754h-948.881v-753.754z"></path>
<path fill="#d22215" d="M992.363 108.146h-961.874c-13.724 0-24.863 11.139-24.863 24.874v756.823c0 13.735 11.139 24.863 24.863 24.863h961.863c13.735 0 24.863-11.139 24.863-24.863v-756.823c0.011-13.735-11.128-24.874-24.852-24.874zM470.872 169.247c0-7.081 5.744-12.825 12.825-12.825h57.695c7.081 0 12.825 5.744 12.825 12.825v57.695c0 7.081-5.744 12.825-12.825 12.825h-57.695c-7.081 0-12.825-5.744-12.825-12.825v-57.695zM333.475 169.247c0-7.081 5.744-12.825 12.825-12.825h57.695c7.081 0 12.825 5.744 12.825 12.825v57.695c0 7.081-5.744 12.825-12.825 12.825h-57.695c-7.081 0-12.825-5.744-12.825-12.825v-57.695zM146.464 853.606c0 7.081-5.744 12.825-12.825 12.825h-57.695c-7.081 0-12.825-5.744-12.825-12.825v-57.695c0-7.081 5.744-12.825 12.825-12.825h57.695c7.081 0 12.825 5.744 12.825 12.825v57.695zM146.464 226.942c0 7.081-5.744 12.825-12.825 12.825h-57.695c-7.081 0-12.825-5.744-12.825-12.825v-57.695c0-7.081 5.744-12.825 12.825-12.825h57.695c7.081 0 12.825 5.744 12.825 12.825v57.695zM281.636 853.606c0 7.081-5.744 12.825-12.825 12.825h-57.695c-7.081 0-12.825-5.744-12.825-12.825v-57.695c0-7.081 5.744-12.825 12.825-12.825h57.695c7.081 0 12.825 5.744 12.825 12.825v57.695zM281.636 226.942c0 7.081-5.744 12.825-12.825 12.825h-57.695c-7.081 0-12.825-5.744-12.825-12.825v-57.695c0-7.081 5.744-12.825 12.825-12.825h57.695c7.081 0 12.825 5.744 12.825 12.825v57.695zM416.808 853.606c0 7.081-5.744 12.825-12.825 12.825h-57.695c-7.081 0-12.825-5.744-12.825-12.825v-57.695c0-7.081 5.744-12.825 12.825-12.825h57.695c7.081 0 12.825 5.744 12.825 12.825v57.695zM425.317 649.364c-11.004 6.351-24.773-1.585-24.773-14.297v-247.28c0-12.712 13.758-20.659 24.773-14.297l214.144 123.64c11.004 6.351 11.004 22.244 0 28.606l-214.144 123.629zM554.206 853.606c0 7.081-5.744 12.825-12.825 12.825h-57.695c-7.081 0-12.825-5.744-12.825-12.825v-57.695c0-7.081 5.744-12.825 12.825-12.825h57.695c7.081 0 12.825 5.744 12.825 12.825v57.695zM689.378 853.606c0 7.081-5.744 12.825-12.825 12.825h-57.695c-7.081 0-12.825-5.744-12.825-12.825v-57.695c0-7.081 5.744-12.825 12.825-12.825h57.695c7.081 0 12.825 5.744 12.825 12.825v57.695zM689.378 226.942c0 7.081-5.744 12.825-12.825 12.825h-57.695c-7.081 0-12.825-5.744-12.825-12.825v-57.695c0-7.081 5.744-12.825 12.825-12.825h57.695c7.081 0 12.825 5.744 12.825 12.825v57.695zM824.562 853.606c0 7.081-5.744 12.825-12.825 12.825h-57.695c-7.081 0-12.825-5.744-12.825-12.825v-57.695c0-7.081 5.744-12.825 12.825-12.825h57.695c7.081 0 12.825 5.744 12.825 12.825v57.695zM824.562 226.942c0 7.081-5.744 12.825-12.825 12.825h-57.695c-7.081 0-12.825-5.744-12.825-12.825v-57.695c0-7.081 5.744-12.825 12.825-12.825h57.695c7.081 0 12.825 5.744 12.825 12.825v57.695zM959.734 853.606c0 7.081-5.744 12.825-12.825 12.825h-57.695c-7.081 0-12.825-5.744-12.825-12.825v-57.695c0-7.081 5.744-12.825 12.825-12.825h57.695c7.081 0 12.825 5.744 12.825 12.825v57.695zM959.734 226.942c0 7.081-5.744 12.825-12.825 12.825h-57.695c-7.081 0-12.825-5.744-12.825-12.825v-57.695c0-7.081 5.744-12.825 12.825-12.825h57.695c7.081 0 12.825 5.744 12.825 12.825v57.695z"></path>
</svg>
